<svg width="20" height="20" viewBox="0 0 20 20" fill="none" xmlns="http://www.w3.org/2000/svg">
<path d="M2.58349 1.0585C1.31476 1.0585 0.308496 2.10546 0.308496 3.36921V11.8812C0.308496 13.1448 1.31476 14.1918 2.58349 14.1918H9.16683C9.50276 14.1918 9.77516 13.9194 9.77516 13.5835C9.77516 13.2476 9.50276 12.9752 9.16683 12.9752H2.58349C2.01075 12.9752 1.52516 12.4972 1.52516 11.8812V3.36921C1.52516 2.75311 2.01075 2.27516 2.58349 2.27516H17.5835C18.1562 2.27516 18.6418 2.75311 18.6418 3.36921V7.0835C18.6418 7.41943 18.9142 7.69183 19.2502 7.69183C19.5861 7.69183 19.8585 7.41943 19.8585 7.0835V3.36921C19.8585 2.10546 18.8523 1.0585 17.5835 1.0585H2.58349Z" fill="#551FFF" stroke="#551FFF" stroke-width="0.3"/>
<path d="M0.916829 3.8085C0.580856 3.8085 0.308496 4.08086 0.308496 4.41683C0.308496 4.7528 0.580856 5.02516 0.916829 5.02516H19.2502C19.5861 5.02516 19.8585 4.75281 19.8585 4.41683C19.8585 4.08085 19.5861 3.8085 19.2502 3.8085H0.916829Z" fill="#551FFF" stroke="#551FFF" stroke-width="0.3"/>
<path d="M2.75033 8.39199C2.41435 8.39199 2.14199 8.6644 2.14199 9.00033C2.14199 9.33625 2.41435 9.60866 2.75033 9.60866H4.58366C4.91964 9.60866 5.19199 9.33625 5.19199 9.00033C5.19199 8.6644 4.91964 8.39199 4.58366 8.39199H2.75033Z" fill="#551FFF" stroke="#551FFF" stroke-width="0.3"/>
<path d="M2.75033 10.6835C2.41435 10.6835 2.14199 10.9559 2.14199 11.2918C2.14199 11.6278 2.41435 11.9002 2.75033 11.9002H6.41699C6.75297 11.9002 7.02533 11.6278 7.02533 11.2918C7.02533 10.9559 6.75297 10.6835 6.41699 10.6835H2.75033Z" fill="#551FFF" stroke="#551FFF" stroke-width="0.3"/>
<path d="M13.8577 14.3447L13.8577 14.3447C13.9264 14.3169 13.9852 14.2693 14.0266 14.2079C14.068 14.1464 14.0901 14.0741 14.0901 14C14.0901 13.9259 14.068 13.8536 14.0266 13.7921C13.9852 13.7307 13.9264 13.6831 13.8577 13.6553L13.8559 13.6546L13.8559 13.6546C12.6492 13.148 11.9214 11.8445 11.9214 10.2856V9.86429H11.3571C11.2226 9.86429 11.0936 9.81085 10.9985 9.71575C10.9034 9.62064 10.85 9.49165 10.85 9.35714C10.85 9.22264 10.9034 9.09365 10.9985 8.99854L11.1046 9.1046L10.9985 8.99854C11.0936 8.90343 11.2226 8.85 11.3571 8.85H19.2143C19.3488 8.85 19.4778 8.90343 19.5729 8.99854C19.668 9.09365 19.7214 9.22264 19.7214 9.35714C19.7214 9.49165 19.668 9.62064 19.5729 9.71575C19.4778 9.81085 19.3488 9.86429 19.2143 9.86429H18.65V10.2856C18.65 11.8445 17.9222 13.1481 16.7155 13.6546L16.7137 13.6553L16.7137 13.6553C16.645 13.6831 16.5862 13.7307 16.5448 13.7921C16.5034 13.8536 16.4813 13.9259 16.4813 14C16.4813 14.0741 16.5034 14.1464 16.5448 14.2079C16.5862 14.2693 16.645 14.3169 16.7137 14.3447L16.7155 14.3454L16.7155 14.3454C17.9222 14.852 18.65 16.1555 18.65 17.7144V18.1357H19.2142H19.2143V18.2857L13.8577 14.3447ZM13.8577 14.3447L13.8559 14.3454C12.6492 14.8519 11.9214 16.1555 11.9214 17.7144V18.1357H11.3571C11.2226 18.1357 11.0936 18.1891 10.9985 18.2843C10.9034 18.3794 10.85 18.5084 10.85 18.6429C10.85 18.7774 10.9034 18.9064 10.9985 19.0015L10.9985 19.0015M13.8577 14.3447L10.9985 19.0015M10.9985 19.0015C11.0936 19.0966 11.2226 19.15 11.3571 19.15H19.2142M10.9985 19.0015L19.7214 18.6428M19.7214 18.6428C19.7215 18.7094 19.7084 18.7754 19.6829 18.8369C19.6574 18.8985 19.6201 18.9544 19.5729 19.0015C19.5258 19.0486 19.4699 19.086 19.4084 19.1115C19.3468 19.1369 19.2808 19.15 19.2142 19.15M19.7214 18.6428L19.5714 18.6429L19.7214 18.6428ZM19.2142 19.15L19.2143 19V19.15H19.2142ZM17.6357 17.7144V18.1357H12.9357V17.7144C12.9357 16.53 13.4554 15.6137 14.2479 15.2807C14.5013 15.176 14.7179 14.9984 14.8704 14.7705C15.0229 14.5425 15.1044 14.2743 15.1044 14C15.1044 13.7257 15.0229 13.4575 14.8704 13.2295C14.7179 13.0016 14.5013 12.824 14.2479 12.7193C13.4554 12.3863 12.9357 11.47 12.9357 10.2856V9.86429H17.6357V10.2856C17.6357 11.47 17.116 12.3863 16.3235 12.7193C16.0701 12.824 15.8535 13.0016 15.701 13.2295C15.5485 13.4575 15.467 13.7257 15.467 14C15.467 14.2743 15.5485 14.5425 15.701 14.7705C15.8535 14.9984 16.0701 15.176 16.3235 15.2807C17.116 15.6136 17.6357 16.53 17.6357 17.7144Z" fill="#551FFF" stroke="#551FFF" stroke-width="0.3"/>
<path d="M15.6455 16.35H14.9541C14.7896 16.35 14.626 16.3716 14.4724 16.414C14.319 16.4564 14.1767 16.5192 14.0547 16.6006C13.9327 16.6819 13.8314 16.7815 13.7603 16.8959C13.6888 17.0108 13.6498 17.1381 13.6498 17.2695L15.6455 16.35ZM15.6455 16.35C15.81 16.35 15.9736 16.3716 16.1272 16.414M15.6455 16.35L16.1272 16.414M16.1272 16.414C16.2807 16.4564 16.4229 16.5192 16.5449 16.6006M16.1272 16.414L16.5449 16.6006M16.5449 16.6006C16.6669 16.6819 16.7683 16.7815 16.8394 16.8959M16.5449 16.6006L16.8394 16.8959M16.8394 16.8959C16.9108 17.0109 16.9498 17.1381 16.9498 17.2695M16.8394 16.8959L16.9498 17.2695M16.9498 17.2695C16.9498 17.3946 16.8754 17.4949 16.7818 17.5573M16.9498 17.2695L16.7818 17.5573M16.7818 17.5573C16.6882 17.6197 16.5701 17.65 16.4541 17.65M16.7818 17.5573L16.4541 17.65M16.4541 17.65H14.1455M16.4541 17.65H14.1455M14.1455 17.65C14.0295 17.65 13.9114 17.6197 13.8179 17.5573M14.1455 17.65L13.8179 17.5573M13.8179 17.5573C13.7242 17.4949 13.6498 17.3946 13.6498 17.2695L13.8179 17.5573Z" fill="#551FFF" stroke="#551FFF" stroke-width="0.3"/>
</svg>
