<svg width="21" height="15" viewBox="0 0 21 15" fill="none" xmlns="http://www.w3.org/2000/svg">
<path d="M2.58349 1.0585C1.31476 1.0585 0.308496 2.10546 0.308496 3.36921V11.8812C0.308496 13.1448 1.31476 14.1918 2.58349 14.1918H18.7918C19.1278 14.1918 19.4002 13.9194 19.4002 13.5835C19.4002 13.2476 19.1278 12.9752 18.7918 12.9752H2.58349C2.01075 12.9752 1.52516 12.4972 1.52516 11.8812V3.36921C1.52516 2.75311 2.01075 2.27516 2.58349 2.27516H17.5835C17.6013 2.27516 17.6185 2.27511 17.6352 2.27506C17.7861 2.27461 17.8952 2.27428 17.9952 2.31352C18.0919 2.35145 18.1976 2.43596 18.2965 2.66763C18.3976 2.90427 18.485 3.28048 18.5464 3.87813C18.6075 4.47365 18.6418 5.27939 18.6418 6.36921V10.0835C18.6418 10.4194 18.9142 10.6918 19.2502 10.6918C19.5861 10.6918 19.8585 10.4194 19.8585 10.0835V6.37344C19.9314 5.0804 19.9092 4.10405 19.8145 3.36657C19.7199 2.62952 19.5517 2.12074 19.3246 1.77176C18.8603 1.05836 18.1805 1.05843 17.5998 1.05849L17.5835 1.0585H2.58349Z" fill="#551FFF" stroke="#551FFF" stroke-width="0.3"/>
<path d="M0.916829 3.8085C0.580856 3.8085 0.308496 4.08086 0.308496 4.41683C0.308496 4.7528 0.580856 5.02516 0.916829 5.02516H19.2502C19.5861 5.02516 19.8585 4.75281 19.8585 4.41683C19.8585 4.08085 19.5861 3.8085 19.2502 3.8085H0.916829Z" fill="#551FFF" stroke="#551FFF" stroke-width="0.3"/>
<path d="M2.75033 8.39199C2.41435 8.39199 2.14199 8.6644 2.14199 9.00033C2.14199 9.33625 2.41435 9.60866 2.75033 9.60866H4.58366C4.91964 9.60866 5.19199 9.33625 5.19199 9.00033C5.19199 8.6644 4.91964 8.39199 4.58366 8.39199H2.75033Z" fill="#551FFF" stroke="#551FFF" stroke-width="0.3"/>
<path d="M2.75033 10.6835C2.41435 10.6835 2.14199 10.9559 2.14199 11.2918C2.14199 11.6278 2.41435 11.9002 2.75033 11.9002H6.41699C6.75297 11.9002 7.02533 11.6278 7.02533 11.2918C7.02533 10.9559 6.75297 10.6835 6.41699 10.6835H2.75033Z" fill="#551FFF" stroke="#551FFF" stroke-width="0.3"/>
</svg>
