<svg width="1750" height="1350" viewBox="0 0 1879 1996" fill="none" xmlns="http://www.w3.org/2000/svg">
<path fill-rule="evenodd" clip-rule="evenodd" d="M620.781 1278.95V1505.71H904.121L1295.07 1954.03C1212.95 1980.91 1125.4 1995.49 1034.6 1995.49H390.621V861.689H1086.75C1201.05 861.689 1295.38 956.019 1295.38 1070.32C1295.38 1184.62 1201.05 1278.95 1086.75 1278.95H620.781Z" fill="#1A2980"/>
<path fill-rule="evenodd" clip-rule="evenodd" d="M620.779 1303.89V1505.7H904.119L1295.07 1954.02C1286.74 1956.75 1278.35 1959.35 1269.91 1961.82L893.909 1530.65H610.569V1303.89H620.769H620.779ZM390.619 886.63V861.689H1086.75C1201.05 861.689 1295.38 956.019 1295.38 1070.32C1295.38 1102.59 1287.86 1133.27 1274.5 1160.67C1281.41 1140.06 1285.17 1118.06 1285.17 1095.26C1285.17 980.949 1190.84 886.62 1076.53 886.62H390.609L390.619 886.63Z" fill="#696A6C"/>
<path fill-rule="evenodd" clip-rule="evenodd" d="M751.77 308.39H1034.6C1498.55 308.39 1878.15 687.99 1878.15 1151.94C1878.15 1430.65 1739.76 1689.7 1510.47 1847.39L1199.5 1490.78C1384.77 1440.78 1522.14 1270.83 1522.14 1070.32C1522.14 830.85 1326.22 634.93 1086.75 634.93H751.77V308.39ZM5.65991 380.67H187.64V562.65H5.65991V380.67ZM0 0H261.35V261.35H0V0ZM310.66 308.39H637.2V634.93H310.66V308.39Z" fill="#007AFD"/>
</svg>
