<svg width="70" height="70" viewBox="0 0 70 70" fill="none" xmlns="http://www.w3.org/2000/svg">
<g clip-path="url(#clip0_10569_143)">
<ellipse cx="34.5" cy="34.503" rx="32.5" ry="32.503" fill="white"/>
<path d="M42.5366 63.1237C26.9737 67.2965 10.9186 58.0218 6.74847 42.4489C2.57555 26.876 11.8472 10.8108 27.4101 6.63799C42.9731 2.4652 59.0282 11.7399 63.1983 27.3128C67.3684 42.8857 58.0996 58.9509 42.5366 63.1237ZM27.627 7.45586C12.5144 11.5062 3.51522 27.1069 7.56304 42.2291C11.6136 57.3513 27.2016 66.359 42.317 62.3058C57.4296 58.2527 66.4315 42.6548 62.381 27.5298C58.3304 12.4076 42.7424 3.3999 27.627 7.45308V7.45586Z" fill="#4C8900"/>
<path d="M68.1797 25.9718C67.2234 25.3931 66.8425 24.1914 67.2929 23.1677C67.8044 21.9993 67.2373 20.6417 66.0446 20.1883C64.9993 19.7877 64.4127 18.6749 64.6712 17.5872C64.9659 16.3465 64.1653 15.1114 62.9114 14.8777C61.8105 14.6718 61.0349 13.6815 61.096 12.5632C61.1655 11.2891 60.1564 10.2181 58.8831 10.2097C57.7655 10.2042 56.823 9.36684 56.684 8.25687C56.5256 6.99113 55.3412 6.11762 54.0846 6.33739C52.9837 6.53212 51.9078 5.87838 51.5714 4.81015C51.1878 3.59447 49.8672 2.9463 48.6718 3.38583C47.6209 3.77251 46.4477 3.32185 45.9278 2.33151C45.3357 1.20207 43.9178 0.801482 42.8225 1.44966C41.8578 2.01716 40.6234 1.78348 39.934 0.901629C39.15 -0.102623 37.6849 -0.244498 36.7202 0.587279C35.8722 1.31891 34.6156 1.31056 33.7788 0.565024C32.828 -0.283444 31.3601 -0.161042 30.5595 0.829301C29.8561 1.70002 28.619 1.91701 27.6626 1.33282C26.5756 0.667953 25.1522 1.04907 24.5434 2.17016C24.0068 3.15216 22.828 3.58613 21.7827 3.18276C20.5928 2.72375 19.264 3.35245 18.8636 4.56256C18.5105 5.62523 17.4263 6.26228 16.3282 6.05364C15.0771 5.8144 13.8789 6.67121 13.701 7.93418C13.5453 9.04414 12.5917 9.86479 11.4713 9.85366C10.1981 9.84253 9.17221 10.8996 9.22225 12.1737C9.26673 13.292 8.47441 14.2713 7.37071 14.4604C6.11411 14.6774 5.29398 15.8986 5.57199 17.1449C5.81386 18.2382 5.21058 19.3426 4.1597 19.7265C2.96148 20.1632 2.37488 21.5124 2.86696 22.6892C3.30065 23.7212 2.9031 24.9147 1.9384 25.4794C0.837487 26.122 0.501096 27.5574 1.19612 28.6229C1.80774 29.5604 1.62981 30.8066 0.779105 31.5355C-0.188368 32.3645 -0.26621 33.8361 0.60952 34.7625C1.37683 35.5748 1.42409 36.8349 0.720723 37.7029C-0.082724 38.6932 0.103542 40.1537 1.1294 40.9076C2.03015 41.5697 2.3026 42.7993 1.76326 43.7813C1.14886 44.8996 1.59367 46.3016 2.73907 46.8608C3.74547 47.3532 4.2292 48.5132 3.87335 49.5759C3.46746 50.786 4.15692 52.0879 5.38294 52.4328C6.45884 52.7361 7.14552 53.7932 6.98428 54.9004C6.80079 56.1633 7.70988 57.3206 8.9776 57.443C10.0924 57.5487 10.9543 58.4667 10.9932 59.585C11.0377 60.8591 12.1386 61.8355 13.4091 61.7298C14.5239 61.6352 15.5358 62.3836 15.7749 63.4768C16.0474 64.7231 17.304 65.4881 18.5356 65.1543C19.617 64.8622 20.7457 65.4158 21.1739 66.4507C21.6632 67.6274 23.0365 68.1559 24.1875 67.6079C25.1995 67.1266 26.4088 67.4716 27.0149 68.4119C27.7071 69.4829 29.1528 69.7555 30.1869 69.0127C31.096 68.359 32.3471 68.4814 33.1144 69.2993C33.9873 70.2284 35.458 70.2395 36.3449 69.3243C37.1233 68.5204 38.3771 68.4146 39.2751 69.0823C40.2981 69.8417 41.7494 69.5886 42.4555 68.5287C43.0782 67.5968 44.2931 67.2713 45.2968 67.7665C46.4394 68.3312 47.8211 67.8221 48.3298 66.6537C48.7747 65.6272 49.9117 65.0903 50.9876 65.3963C52.2136 65.7468 53.4814 65.0013 53.7733 63.7606C54.029 62.6701 55.0521 61.9385 56.1641 62.0497C57.4319 62.1749 58.5467 61.2152 58.6106 59.9411C58.6662 58.8228 59.542 57.9187 60.6596 57.8297C61.9301 57.7267 62.8558 56.5834 62.6918 55.3176C62.5472 54.2077 63.2478 53.1617 64.3293 52.8752C65.5609 52.5469 66.267 51.2561 65.8806 50.0404C65.5414 48.975 66.0446 47.8205 67.0566 47.3448C68.2103 46.8024 68.6746 45.4059 68.0769 44.2792C67.5514 43.2889 67.8405 42.0648 68.7524 41.4167C69.7894 40.6767 69.9979 39.219 69.2111 38.2175C68.5189 37.3385 68.5856 36.0811 69.364 35.2799C70.2537 34.3674 70.1981 32.8958 69.2445 32.0501C68.4049 31.3074 68.2464 30.0611 68.872 29.132C69.5837 28.0749 69.2667 26.6366 68.1769 25.9773L68.1797 25.9718ZM42.8614 64.3448C26.6006 68.704 9.88391 59.0481 5.52751 42.777C1.1711 26.5031 10.8208 9.77855 27.0816 5.41659C43.3424 1.05741 60.0591 10.7133 64.4155 26.9844C68.7719 43.2555 59.1222 59.9828 42.8614 64.342V64.3448Z" fill="#4C8900"/>
<path d="M39.7036 52.5554C29.965 55.1676 19.9177 49.3619 17.31 39.617C14.6995 29.8721 20.5015 19.8185 30.2402 17.2091C39.9789 14.5969 50.0261 20.4027 52.6339 30.1476C55.2444 39.8924 49.4423 49.9461 39.7036 52.5554ZM30.4598 18.027C21.1715 20.5167 15.6391 30.1058 18.1273 39.4C20.6155 48.6942 30.1985 54.2301 39.4868 51.7404C48.7751 49.2506 54.3075 39.6615 51.8193 30.3673C49.3311 21.0731 39.7481 15.5372 30.4598 18.027Z" fill="#4C8900"/>
<path d="M30.7768 19.212C22.1279 21.5321 16.9959 30.4257 19.3117 39.0801C21.6303 47.7344 30.5182 52.8697 39.1671 50.5525C47.816 48.2324 52.948 39.3388 50.6322 30.6844C48.3136 22.03 39.4257 16.8947 30.7768 19.212ZM33.9683 48.1767L22.3892 41.4864L25.7615 35.6445L31.5024 38.9604L40.5599 23.2624L46.3981 26.6368L33.9683 48.1767Z" fill="#4C8900"/>
<path d="M14.001 25.9311L14.81 24.0005L15.7747 24.4039L14.9657 26.3345L14.001 25.9311Z" fill="#4C8900"/>
<path d="M23.7514 16.6193L24.5076 17.415L21.5913 20.194L18.1328 16.5609L20.9824 13.8458L21.7386 14.6387L19.9065 16.3857L20.4903 16.9977L22.1028 15.4593L22.834 16.2271L21.2215 17.7655L21.8554 18.4303L23.7542 16.6193H23.7514Z" fill="#4C8900"/>
<path d="M26.448 14.6526L25.7752 15.0337L26.4341 16.1937L25.1997 16.8947L22.7227 12.53L24.716 11.3978C25.1108 11.1724 25.4916 11.0445 25.8558 11.0111C26.22 10.9777 26.5508 11.0361 26.8483 11.1891C27.143 11.3421 27.3849 11.5842 27.5711 11.9124C27.7518 12.2296 27.8325 12.5467 27.8186 12.8638C27.8047 13.1837 27.699 13.487 27.4989 13.7763L29.217 14.6136L27.8964 15.3647L26.4452 14.6553L26.448 14.6526ZM25.8614 12.2546C25.6696 12.2156 25.4471 12.2685 25.1914 12.4132L24.5075 12.8026L25.2331 14.0795L25.9198 13.69C26.1728 13.5454 26.334 13.3812 26.3979 13.2004C26.4647 13.0168 26.4396 12.8221 26.3229 12.619C26.2089 12.4159 26.0532 12.2935 25.8614 12.2546Z" fill="#4C8900"/>
<path d="M28.9668 9.79543L30.3541 9.50055L31.3938 14.4105L30.0066 14.7054L28.9668 9.79543Z" fill="#4C8900"/>
<path d="M33.8153 10.2071L33.8542 11.3115L36.0672 11.2336L36.1061 12.3297L33.8932 12.4076L33.9515 14.1268L32.5337 14.1769L32.3613 9.16115L36.2924 9.02484L36.3313 10.1209L33.8181 10.2071H33.8153Z" fill="#4C8900"/>
<path d="M37.9742 9.23907L39.3782 9.43937L38.672 14.4078L37.2681 14.2075L37.9742 9.23907Z" fill="#4C8900"/>
<path d="M43.9906 14.7972L43.6459 15.8376L39.8232 14.5663L41.4051 9.80377L45.1388 11.0445L44.794 12.0849L42.3948 11.2865L42.1279 12.0905L44.2436 12.7943L43.91 13.8013L41.7943 13.0975L41.5052 13.9682L43.9934 14.7944L43.9906 14.7972Z" fill="#4C8900"/>
<path d="M47.1681 11.9653L49.1558 13.2616C49.6173 13.5621 49.9676 13.9126 50.2123 14.3187C50.4569 14.7221 50.5737 15.1477 50.5626 15.5928C50.5515 16.0379 50.4097 16.4719 50.1344 16.8947C49.8564 17.3204 49.52 17.6264 49.1169 17.8155C48.7138 18.0047 48.2801 18.0687 47.8103 18.0075C47.3432 17.9463 46.879 17.7682 46.4175 17.4678L44.4297 16.1714L47.1681 11.9653ZM46.9902 16.4858C47.3516 16.7195 47.7046 16.8057 48.0577 16.7445C48.408 16.6833 48.7027 16.4719 48.9362 16.1102C49.1698 15.7486 49.2448 15.3953 49.1614 15.0504C49.0752 14.7026 48.8528 14.4133 48.4942 14.1796L47.7436 13.69L46.2423 15.9962L46.9929 16.4858H46.9902Z" fill="#4C8900"/>
<path d="M52.8284 19.6265L54.1295 21.265L53.3094 21.916L52.0083 20.2775L52.8284 19.6265Z" fill="#4C8900"/>
<path d="M20.6134 22.1893L19.8255 23.3755L14.3797 21.8289L15.1189 20.716L17.3804 21.4322C18.0151 21.6334 18.6209 21.8346 19.2513 22.1001L19.2646 22.0801C18.8003 21.608 18.3603 21.1136 17.9492 20.6192L16.4114 18.7702L17.1285 17.6906L20.6134 22.1893Z" fill="#4C8900"/>
<path d="M21.696 53.0005L23.2612 54.3914L22.5662 55.1731L21.001 53.7822L21.696 53.0005Z" fill="#4C8900"/>
<path d="M33.8629 59.1206L33.6794 60.2028L29.7095 59.5296L30.5491 54.5806L34.4273 55.2399L34.2438 56.3221L31.7501 55.8992L31.6083 56.7338L33.8046 57.1066L33.6266 58.1525L31.4304 57.7798L31.2774 58.6839L33.8629 59.1234V59.1206Z" fill="#4C8900"/>
<path d="M37.6965 58.7868L36.9264 58.848L37.032 60.1777L35.617 60.2918L35.2139 55.29L37.4991 55.1064C37.9523 55.0702 38.3498 55.1147 38.6945 55.2371C39.0393 55.3595 39.3145 55.5542 39.5175 55.8185C39.7204 56.0828 39.8372 56.4027 39.8677 56.7783C39.8955 57.1399 39.8372 57.4626 39.6898 57.7464C39.5425 58.0301 39.3173 58.2582 39.0143 58.4363L40.218 59.9218L38.7029 60.0442L37.6881 58.7868H37.6965ZM38.1774 56.3666C38.019 56.2497 37.7938 56.2024 37.5047 56.2275L36.7179 56.2914L36.8347 57.7575L37.6214 57.6935C37.9106 57.6712 38.1246 57.5906 38.2636 57.4515C38.4026 57.3124 38.461 57.1288 38.4416 56.8951C38.4221 56.6614 38.3331 56.4862 38.1774 56.3693V56.3666Z" fill="#4C8900"/>
<path d="M40.4961 54.9645L41.85 54.5417L43.3485 59.3321L41.9946 59.7549L40.4961 54.9645Z" fill="#4C8900"/>
<path d="M44.6106 54.55L45.1193 55.5292L47.0821 54.5055L47.5881 55.4791L45.6253 56.5029L46.4204 58.0301L45.161 58.6866L42.8452 54.2357L46.3342 52.4163L46.8402 53.39L44.6106 54.5528V54.55Z" fill="#4C8900"/>
<path d="M46.8516 51.9351L47.9747 51.0671L51.0439 55.0369L49.9208 55.9048L46.8516 51.9351Z" fill="#4C8900"/>
<path d="M54.4048 50.0573L55.2222 50.7889L52.5366 53.7933L48.7974 50.4468L51.419 47.5119L52.2363 48.2435L50.5488 50.1296L51.1799 50.6944L52.6645 49.0336L53.454 49.7402L51.9694 51.4009L52.6534 52.013L54.402 50.0573H54.4048Z" fill="#4C8900"/>
<path d="M51.9056 46.9055L52.9787 44.7885C53.2262 44.2989 53.5403 43.9094 53.9156 43.6229C54.2909 43.3363 54.6996 43.175 55.1416 43.136C55.5837 43.0971 56.0313 43.1945 56.4816 43.4226C56.932 43.6507 57.274 43.9567 57.5047 44.335C57.7355 44.7161 57.8467 45.1418 57.8356 45.6119C57.8272 46.0848 57.6965 46.5661 57.4491 47.0557L56.376 49.1727L51.9028 46.9027L51.9056 46.9055ZM56.4149 46.5967C56.6095 46.2128 56.6568 45.8511 56.5567 45.5062C56.4566 45.164 56.2148 44.8942 55.8311 44.6995C55.4475 44.5047 55.0888 44.4686 54.7524 44.591C54.416 44.7134 54.1519 44.9665 53.9573 45.3504L53.5514 46.1488L56.0062 47.3951L56.4121 46.5967H56.4149Z" fill="#4C8900"/>
<path d="M57.2573 39.8924L57.5548 37.8199L58.589 37.9701L58.2915 40.0426L57.2573 39.8924Z" fill="#4C8900"/>
<path d="M24.9261 58.6046L26.2842 59.0325L29.5499 54.4082L28.2757 54.0067L26.966 55.9845C26.5985 56.5397 26.2535 57.0769 25.9298 57.6795L25.9069 57.6722C25.9716 57.0132 26.0034 56.3522 26.0127 55.7093L26.0477 53.3046L24.8116 52.9151L24.9261 58.6046Z" fill="#4C8900"/>
</g>
<defs>
<clipPath id="clip0_10569_143">
<rect width="69.997" height="70.0035" rx="34.9985" fill="white"/>
</clipPath>
</defs>
</svg>
